# xmcd
#
# Track frame offsets:
#	150
#	11672
#	23592
#	44280
#	60410
#	71197
#	90225
#	103340
#	121245
#	134960
#	147437
#	163155
#	179455
#	194430
#
# Disc length: 2758
#
# Revision: 1
# Processed by: cddbd v1.5.1PL0 Copyright (c) Steve Scherf et al.
# Submitted via: VisiTrax 2.9.5.180 - For more info visit www.synapsa.com
# Normalized: r0:DSETVAR1
#
DISCID=cc0ac40e
DTITLE=Various Artist - Mr Music Country 07-95
DYEAR=1995
DGENRE=
TTITLE0=Ken Mellons - Honky Tonk Teachers
TTITLE1=Scott Partridge - I Feel Right At Home
TTITLE2=Darrel and Mona McCall - Secret Memories
TTITLE3=Joe Diffie - Pickup Man
TTITLE4=Heather Myles - Cadillac Cowboy
TTITLE5=Rick Trevino - San Antonio Rose To You
TTITLE6=Rayburn Anthony - Country Music Fan
TTITLE7=Patty Loveless - You Don't Even Know Who I Am
TTITLE8=Doug Stone - Addicted To A Dollar
TTITLE9=Joy Lynn White - Burning Memories
TTITLE10=Micke muster with Ann Dueren - Kisses Of Fire
TTITLE11=Ty Herndon - Love At 90 Miles An Hour
TTITLE12=Ricky van Shelton - Where The Tall Grass Grows
TTITLE13=Becky Hobbs - Dance All Our Troubles Away
EXTD=
EXTT0=
EXTT1=
EXTT2=
EXTT3=
EXTT4=
EXTT5=
EXTT6=
EXTT7=
EXTT8=
EXTT9=
EXTT10=
EXTT11=
EXTT12=
EXTT13=
PLAYORDER=
